<mxfile host="app.diagrams.net" modified="2024-02-06T03:59:19.891Z" agent="Mozilla/5.0 (Windows NT 10.0; Win64; x64) AppleWebKit/537.36 (KHTML, like Gecko) Chrome/121.0.0.0 Safari/537.36" version="23.1.1" etag="v5cCKbwqq0E1k4rQuy7q" type="github">
  <diagram name="Halaman-1" id="qafUjK-G_AZAGigmjdS5">
    <mxGraphModel>
      <root>
        <mxCell id="0" />
        <mxCell id="1" parent="0" />
      </root>
    </mxGraphModel>
  </diagram>
</mxfile>
